# xmcd
#
# Track frame offsets: 
#        183
#        18560
#        37928
#        60518
#        77315
#        96243
#        117880
#        137575
#        156010
#        179375
#
# Disc length: 2669 seconds
#
# Revision: 7
# Processed by: cddbd v1.5.2PL0 Copyright (c) Steve Scherf et al.
# Submitted via: ExactAudioCopy v0.95b3
#
DISCID=700a6b0a
DTITLE=Rod Stewart - Atlantic Crossing [7599-27331-2]
DYEAR=1975
DGENRE=Rock
TTITLE0=Three Time Loser
TTITLE1=Alright For An Hour
TTITLE2=All In The Name Of Rock 'N' Roll
TTITLE3=Drift Away
TTITLE4=Stone Cold Sober
TTITLE5=I Don't Want To Talk About It
TTITLE6=It's Not The Spotlight
TTITLE7=This Old Heart Of Mine
TTITLE8=Still Love You
TTITLE9=Sailing
EXTD=YEAR: 1975
EXTT0=
EXTT1=
EXTT2=
EXTT3=
EXTT4=
EXTT5=
EXTT6=
EXTT7=
EXTT8=
EXTT9=
PLAYORDER=
